<svg width="18" height="18" viewBox="0 0 18 18" fill="none" xmlns="http://www.w3.org/2000/svg">
<path d="M15.3625 2.52177C11.8462 -0.840323 6.15431 -0.84086 2.63748 2.52177C-0.878896 5.88387 -0.879423 11.3261 2.63748 14.6887C6.15375 18.0508 11.8457 18.0513 15.3625 14.6887C18.8789 11.3266 18.8794 5.88437 15.3625 2.52177ZM14.9864 13.4623C14.566 13.1028 14.1163 12.7847 13.6423 12.5106C13.9556 11.4758 14.1412 10.3371 14.1851 9.15347H16.8305C16.7109 10.7489 16.0698 12.2456 14.9864 13.4623ZM1.16943 9.15347H3.81485C3.85872 10.3371 4.04434 11.4758 4.35764 12.5106C3.88363 12.7847 3.43393 13.1028 3.01352 13.4623C1.93018 12.2456 1.28907 10.7489 1.16943 9.15347ZM3.01355 3.74816C3.43396 4.1076 3.88366 4.4257 4.35767 4.69984C4.04437 5.73461 3.85876 6.8733 3.81488 8.05696H1.16943C1.28907 6.46153 1.93018 4.96487 3.01355 3.74816ZM8.42661 4.81316C7.49144 4.74921 6.58975 4.52898 5.75382 4.16567C6.23998 2.96868 7.13623 1.53301 8.42661 1.17723V4.81316ZM8.42661 5.91171V8.057H4.96215C5.00184 7.05571 5.15022 6.09422 5.39699 5.21449C6.34695 5.61155 7.3686 5.84867 8.42661 5.91171ZM8.42661 9.15347V11.2988C7.3686 11.3618 6.34695 11.5989 5.39699 11.996C5.15022 11.1162 5.00184 10.1548 4.96215 9.15347H8.42661ZM8.42661 12.3973V16.0332C7.1363 15.6774 6.24006 14.2419 5.75382 13.0448C6.58975 12.6815 7.49144 12.4613 8.42661 12.3973ZM9.57338 12.3973C10.5085 12.4613 11.4102 12.6815 12.2462 13.0448C11.76 14.2418 10.8638 15.6774 9.57338 16.0332V12.3973ZM9.57338 11.2988V9.15347H13.0378C12.9981 10.1548 12.8498 11.1162 12.603 11.996C11.653 11.5989 10.6314 11.3618 9.57338 11.2988ZM9.57338 8.057V5.91171C10.6314 5.84867 11.653 5.61155 12.603 5.21449C12.8498 6.09422 12.9981 7.05571 13.0378 8.057H9.57338ZM9.57338 4.81316V1.17726C10.8638 1.53305 11.76 2.96871 12.2462 4.16571C11.4102 4.52898 10.5085 4.74921 9.57338 4.81316ZM12.1489 1.72463C12.8829 2.03194 13.5677 2.44866 14.1816 2.96569C13.8894 3.21201 13.581 3.43537 13.2591 3.63511C12.9732 2.95827 12.608 2.3005 12.1489 1.72463ZM4.74085 3.63511C4.4189 3.43537 4.11062 3.21201 3.8184 2.96569C4.43225 2.44866 5.11703 2.03194 5.85102 1.72463C5.39197 2.30057 5.02675 2.95833 4.74085 3.63511ZM4.74088 13.5754C5.02675 14.2522 5.39204 14.91 5.85105 15.4858C5.11706 15.1785 4.43229 14.7618 3.81843 14.2448C4.11062 13.9985 4.41894 13.7751 4.74088 13.5754ZM13.2591 13.5754C13.581 13.7751 13.8894 13.9985 14.1816 14.2447C13.5677 14.7618 12.8829 15.1785 12.1489 15.4858C12.6079 14.91 12.9732 14.2522 13.2591 13.5754ZM14.1851 8.057C14.1413 6.87333 13.9556 5.73461 13.6423 4.69987C14.1164 4.42574 14.566 4.10764 14.9865 3.74819C16.0698 4.96487 16.7109 6.46153 16.8306 8.057H14.1851Z" fill="#E7E7E7"/>
</svg>
