<svg width="19" height="19" viewBox="0 0 19 19" fill="none" xmlns="http://www.w3.org/2000/svg">
<path d="M4.07812 19H0.538086V5.79199H4.07812V19ZM0.330566 2.37402C0.330566 1.84505 0.505534 1.40967 0.855469 1.06787C1.21354 0.726074 1.69775 0.555176 2.30811 0.555176C2.91032 0.555176 3.39046 0.726074 3.74854 1.06787C4.10661 1.40967 4.28564 1.84505 4.28564 2.37402C4.28564 2.91113 4.10254 3.35059 3.73633 3.69238C3.37826 4.03418 2.90218 4.20508 2.30811 4.20508C1.71403 4.20508 1.23389 4.03418 0.867676 3.69238C0.509603 3.35059 0.330566 2.91113 0.330566 2.37402ZM10.2427 5.79199L10.3525 7.31787C11.2965 6.13786 12.562 5.54785 14.1489 5.54785C15.5487 5.54785 16.5903 5.95882 17.2739 6.78076C17.9575 7.6027 18.3075 8.83154 18.3237 10.4673V19H14.7959V10.5527C14.7959 9.80404 14.6331 9.26286 14.3076 8.9292C13.9821 8.5874 13.4409 8.4165 12.6841 8.4165C11.6912 8.4165 10.9466 8.83968 10.4502 9.68604V19H6.92236V5.79199H10.2427Z" fill="#E7E7E7"/>
</svg>
