<svg width="18" height="18" viewBox="0 0 18 18" fill="none" xmlns="http://www.w3.org/2000/svg">
<g clip-path="url(#clip0_37_45)">
<path d="M17.982 5.29205C17.9398 4.33564 17.7852 3.67812 17.5636 3.10836C17.3351 2.50359 16.9834 1.96213 16.5227 1.51201C16.0726 1.05489 15.5276 0.699691 14.9298 0.474702C14.3568 0.253147 13.7027 0.0984842 12.7463 0.0563159C11.7827 0.0105764 11.4768 0 9.033 0C6.58917 0 6.28328 0.0105764 5.3233 0.0527447C4.36689 0.094913 3.70937 0.249713 3.13975 0.471131C2.53484 0.699691 1.99338 1.05132 1.54326 1.51201C1.08614 1.96213 0.731078 2.50716 0.505952 3.10493C0.284397 3.67812 0.129734 4.33207 0.0875659 5.28848C0.0418264 6.25203 0.03125 6.55792 0.03125 9.00176C0.03125 11.4456 0.0418264 11.7515 0.0839947 12.7115C0.126163 13.6679 0.280963 14.3254 0.502518 14.8952C0.731078 15.4999 1.08614 16.0414 1.54326 16.4915C1.99338 16.9486 2.53841 17.3038 3.13618 17.5288C3.70937 17.7504 4.36332 17.905 5.31986 17.9472C6.27971 17.9895 6.58574 17.9999 9.02957 17.9999C11.4734 17.9999 11.7793 17.9895 12.7393 17.9472C13.6957 17.905 14.3532 17.7504 14.9228 17.5288C16.1325 17.0611 17.0889 16.1047 17.5566 14.8952C17.778 14.322 17.9328 13.6679 17.975 12.7115C18.0172 11.7515 18.0278 11.4456 18.0278 9.00176C18.0278 6.55792 18.0242 6.25203 17.982 5.29205ZM16.3611 12.6411C16.3223 13.5202 16.1747 13.9949 16.0516 14.3114C15.7492 15.0956 15.1268 15.7179 14.3426 16.0204C14.0262 16.1434 13.548 16.2911 12.6724 16.3297C11.723 16.372 11.4382 16.3824 9.03658 16.3824C6.63491 16.3824 6.3466 16.372 5.40063 16.3297C4.52155 16.2911 4.04685 16.1434 3.73038 16.0204C3.34015 15.8761 2.98495 15.6476 2.69664 15.3487C2.39775 15.0568 2.16919 14.7052 2.02497 14.315C1.9019 13.9985 1.75424 13.5202 1.71565 12.6447C1.67334 11.6953 1.6629 11.4104 1.6629 9.00876C1.6629 6.6071 1.67334 6.31879 1.71565 5.37295C1.75424 4.49387 1.9019 4.01917 2.02497 3.7027C2.16919 3.31234 2.39775 2.95727 2.70021 2.66883C2.99196 2.36994 3.34359 2.14138 3.73395 1.99729C4.05042 1.87422 4.52869 1.72656 5.4042 1.68783C6.3536 1.64566 6.63848 1.63509 9.04001 1.63509C11.4452 1.63509 11.73 1.64566 12.676 1.68783C13.555 1.72656 14.0297 1.87422 14.3462 1.99729C14.7364 2.14138 15.0916 2.36994 15.3799 2.66883C15.6788 2.96071 15.9074 3.31234 16.0516 3.7027C16.1747 4.01917 16.3223 4.49731 16.3611 5.37295C16.4032 6.32236 16.4138 6.6071 16.4138 9.00876C16.4138 11.4104 16.4032 11.6917 16.3611 12.6411Z" fill="#E7E7E7"/>
<path d="M9.03313 4.37781C6.48037 4.37781 4.40918 6.44886 4.40918 9.00176C4.40918 11.5547 6.48037 13.6257 9.03313 13.6257C11.586 13.6257 13.6571 11.5547 13.6571 9.00176C13.6571 6.44886 11.586 4.37781 9.03313 4.37781ZM9.03313 12.0012C7.37703 12.0012 6.03369 10.658 6.03369 9.00176C6.03369 7.34552 7.37703 6.00232 9.03313 6.00232C10.6894 6.00232 12.0326 7.34552 12.0326 9.00176C12.0326 10.658 10.6894 12.0012 9.03313 12.0012Z" fill="#E7E7E7"/>
<path d="M14.9198 4.19499C14.9198 4.79112 14.4365 5.27447 13.8402 5.27447C13.2441 5.27447 12.7607 4.79112 12.7607 4.19499C12.7607 3.59873 13.2441 3.11551 13.8402 3.11551C14.4365 3.11551 14.9198 3.59873 14.9198 4.19499Z" fill="#E7E7E7"/>
</g>
<defs>
<clipPath id="clip0_37_45">
<rect width="18" height="18" fill="white"/>
</clipPath>
</defs>
</svg>
