<svg width="31" height="27" viewBox="0 0 31 27" fill="none" xmlns="http://www.w3.org/2000/svg">
<path d="M17.8563 22.2698C12.9625 22.2698 2.99375 22.2698 2.26875 22.2698C1.54375 22.2698 1.12083 21.6656 1 21.3635V1.96975C1 1.24476 1.84583 1.0635 2.26875 1.0635H28.55C29.42 0.773503 29.8792 1.54684 30 1.96975V19.551M17.8563 22.2698L12.4188 19.551L17.8563 16.8323L18.4 18.101L15.8625 19.551L18.4 20.8198L17.8563 22.2698ZM30 19.551L25.2875 16.8323L24.3813 18.101L26.7375 19.551L23.8375 20.8198L25.2875 22.2698L30 19.551ZM18.4 24.626L22.025 14.1135C22.6292 13.6906 23.8375 13.2435 23.8375 14.8385L20.3938 25.1698C19.9104 25.4718 18.835 25.786 18.4 24.626Z" stroke="white" stroke-width="2" stroke-linejoin="round"/>
<path d="M6.8 13.3885H16.4063M4.9875 9.76348H14.775M3.71875 6.50098H12.9625" stroke="white" stroke-width="2" stroke-linejoin="round"/>
<circle cx="18.5805" cy="3.9634" r="1" stroke="white" stroke-width="1.2625"/>
<circle cx="22.2055" cy="3.9634" r="1" stroke="white" stroke-width="1.2625"/>
<circle cx="25.8314" cy="3.9634" r="1" stroke="white" stroke-width="1.2625"/>
</svg>
